#!OML:ASF X:\für Bonn\!DataBase\2005_08_10_Bjorn_Final\c3d\bjorn.ASF
:FULLY-SPECIFIED
:DEGREES
301
root 5.32692 18.9908 -0.105405 321.655 -267.867 -402.363
lowerback -0.771913 1.33305 0.763254
upperback 5.01285 2.03152 -3.11211
thorax 5.77352 1.18154 -3.54345
lowerneck -6.36824 -1.53333 1.02733
upperneck -0.560734 -2.04262 -2.39425
head 0.853396 -1.04076 -0.964255
rclavicle -3.97569e-016 7.15625e-015
rhumerus -37.0416 -5.79225 -81.1655
rradius 32.5817
rwrist -0.631211
rhand -10.5015 11.0312
rfingers 7.12502
rthumb 15.5007 -18.3674
lclavicle -3.97569e-016 7.15625e-015
lhumerus -35.6349 -27.1508 82.275
lradius 43.7703
lwrist 3.17313
lhand -2.44268 -7.53756
lfingers 7.12502
lthumb 23.2487 21.079
rfemur -10.3094 -10.8688 13.7415
rtibia 31.1814
rfoot -20.2915 25.2204
rtoes 1.36551
lfemur -13.3998 4.02278 -19.1367
ltibia 33.8117
lfoot -20.5047 -5.97294
ltoes -6.48878
302
root 5.32796 18.9761 -0.113752 327.755 -267.668 -396.134
lowerback -0.697025 1.27115 0.848247
upperback 5.09832 1.95583 -3.18264
thorax 5.82197 1.15388 -3.67111
lowerneck -6.46589 -1.64373 0.957653
upperneck -0.49183 -2.18386 -2.36946
head 0.889883 -1.1117 -0.950325
rclavicle 6.36111e-015 -2.3059e-014
rhumerus -36.9159 -7.32652 -80.7611
rradius 32.0786
rwrist 0.196488
rhand -10.6676 11.046
rfingers 7.12502
rthumb 15.3407 -18.3649
lclavicle 6.36111e-015 -2.3059e-014
lhumerus -34.23 -24.357 81.3901
lradius 42.6814
lwrist 3.56886
lhand -2.72488 -7.13427
lfingers 7.12502
lthumb 22.978 21.5162
rfemur -10.0962 -10.6476 13.8215
rtibia 31.2003
rfoot -20.6534 24.941
rtoes 1.41296
lfemur -13.3873 3.55454 -19.1408
ltibia 33.981
lfoot -20.7276 -5.71991
ltoes -6.68505
303
root 5.33008 18.9652 -0.122057 332.704 -267.42 -390.953
lowerback -0.539146 1.18968 0.879132
upperback 5.22057 1.85636 -3.22345
thorax 5.85635 1.11211 -3.73991
lowerneck -6.58647 -1.74232 0.838004
upperneck -0.340828 -2.30456 -2.35678
head 0.957153 -1.17339 -0.932662
rclavicle -3.97569e-016 -1.59028e-014
rhumerus -36.6969 -9.02934 -80.2768
rradius 31.3837
rwrist 1.11873
rhand -10.9386 11.0373
rfingers 7.12502
rthumb 15.0796 -18.3935
lclavicle -3.97569e-016 -1.59028e-014
lhumerus -32.8585 -21.2097 80.625
lradius 41.4977
lwrist 3.58358
lhand -3.34431 -6.70632
lfingers 7.12502
lthumb 22.3835 22.0169
rfemur -9.72055 -10.5096 13.8615
rtibia 31.1574
rfoot -20.9179 24.6752
rtoes 1.54032
lfemur -13.2529 3.09136 -19.1485
ltibia 34.1361
lfoot -20.8995 -5.54647
ltoes -6.88434
304
root 5.33364 18.9612 -0.130003 336.983 -267.173 -386.403
lowerback -0.33109 1.11147 0.911827
upperback 5.33345 1.76015 -3.25552
thorax 5.85174 1.07134 -3.80104
lowerneck -6.62148 -1.82688 0.769418
upperneck -0.207186 -2.41027 -2.37655
head 1.00407 -1.22783 -0.932148
rclavicle 1.23246e-014 -1.11319e-014
rhumerus -36.4781 -10.8793 -79.7602
rradius 30.5953
rwrist 1.98487
rhand -11.3408 10.87
rfingers 7.12502
rthumb 14.6922 -18.5894
lclavicle 1.23246e-014 -1.11319e-014
lhumerus -31.6255 -17.8543 79.9629
lradius 40.3521
lwrist 3.28834
lhand -4.3559 -6.21853
lfingers 7.12502
lthumb 21.4122 22.6183
rfemur -9.26475 -10.3176 13.9217
rtibia 31.058
rfoot -21.127 24.3577
rtoes 1.76713
lfemur -13.0441 2.6604 -19.1302
ltibia 34.2542
lfoot -21.0286 -5.35742
ltoes -7.31793
305
root 5.33874 18.9636 -0.138838 343.283 -266.978 -379.922
lowerback -0.184063 1.03997 1.09709
upperback 5.36705 1.65887 -3.24313
thorax 5.80078 1.03039 -3.90083
lowerneck -6.68324 -1.92084 0.672284
upperneck 0.144058 -2.52335 -2.44077
head 1.12465 -1.2891 -0.944216
rclavicle 5.36719e-015 8.74653e-015
rhumerus -36.326 -12.6905 -79.2448
rradius 29.7102
rwrist 2.60091
rhand -11.9018 10.6966
rfingers 7.12502
rthumb 14.1516 -18.8014
lclavicle 5.36719e-015 8.74653e-015
lhumerus -30.5637 -14.3037 79.3972
lradius 39.2299
lwrist 2.81805
lhand -5.5721 -5.65462
lfingers 7.12502
lthumb 20.2437 23.3105
rfemur -8.88022 -10.1193 14.1799
rtibia 30.8939
rfoot -21.2986 23.9245
rtoes 2.09837
lfemur -12.9048 2.26818 -18.9367
ltibia 34.3317
lfoot -21.1372 -5.23637
ltoes -7.71906
306
root 5.34537 18.9698 -0.147611 347.397 -266.751 -375.707
lowerback -0.105065 0.988603 1.19588
upperback 5.36127 1.58803 -3.26434
thorax 5.74761 1.00028 -3.98408
lowerneck -6.82003 -2.01975 0.622761
upperneck 0.672554 -2.64318 -2.53041
head 1.31481 -1.35643 -0.976623
rclavicle -1.76918e-014 2.3059e-014
rhumerus -36.2407 -14.5599 -78.7395
rradius 28.7997
rwrist 2.94191
rhand -12.6216 10.4531
rfingers 7.12502
rthumb 13.458 -19.0921
lclavicle -1.76918e-014 2.3059e-014
lhumerus -29.6022 -10.7822 78.9404
lradius 38.1836
lwrist 2.35458
lhand -7.06086 -4.91247
lfingers 7.12502
lthumb 18.8123 24.1978
rfemur -8.56673 -9.97826 14.3598
rtibia 30.6874
rfoot -21.4246 23.4511
rtoes 2.6985
lfemur -12.8096 1.93617 -18.8317
ltibia 34.3384
lfoot -21.2689 -5.09238
ltoes -8.61197
307
root 5.35599 18.9788 -0.156382 349.858 -266.547 -373.213
lowerback -0.123886 0.962365 1.24121
upperback 5.32421 1.5545 -3.33824
thorax 5.72057 0.987245 -4.08899
lowerneck -6.91433 -2.10407 0.608546
upperneck 1.25054 -2.74834 -2.53518
head 1.51556 -1.41518 -0.98867
rclavicle -1.39149e-015 -1.11319e-014
rhumerus -36.2171 -16.2941 -78.3289
rradius 27.9159
rwrist 2.91903
rhand -13.4096 10.0895
rfingers 7.12502
rthumb 12.6984 -19.5045
lclavicle -1.39149e-015 -1.11319e-014
lhumerus -28.8289 -7.43631 78.5316
lradius 37.3207
lwrist 2.08689
lhand -8.84136 -4.09864
lfingers 7.12502
lthumb 17.0991 25.1689
rfemur -8.31044 -9.73777 14.4902
rtibia 30.4457
rfoot -21.5455 23.0012
rtoes 3.35338
lfemur -12.7269 1.61667 -18.7953
ltibia 34.2688
lfoot -21.4234 -4.93895
ltoes -9.46046
308
root 5.37262 18.9869 -0.165582 351.272 -266.395 -371.788
lowerback -0.223489 0.954277 1.22055
upperback 5.27879 1.54733 -3.41664
thorax 5.73124 0.984328 -4.15875
lowerneck -7.0144 -2.17565 0.510966
upperneck 1.91025 -2.83228 -2.42756
head 1.74811 -1.46174 -0.952134
rclavicle 1.23246e-014 -2.46493e-014
rhumerus -36.3075 -18.2785 -77.7748
rradius 27.0234
rwrist 3.12918
rhand -14.1915 9.72145
rfingers 7.12502
rthumb 11.9445 -19.9178
lclavicle 1.23246e-014 -2.46493e-014
lhumerus -28.2307 -4.38268 78.2389
lradius 36.6649
lwrist 2.16797
lhand -10.9456 -3.23886
lfingers 7.12502
lthumb 15.0729 26.1924
rfemur -8.06428 -9.52511 14.5726
rtibia 30.1887
rfoot -21.6844 22.6451
rtoes 3.8373
lfemur -12.5984 1.39097 -18.796
ltibia 34.1089
lfoot -21.5257 -4.85114
ltoes -10.1907
309
root 5.39204 18.9977 -0.174361 352.561 -266.25 -370.535
lowerback -0.404351 0.944716 1.17784
upperback 5.22159 1.53938 -3.5091
thorax 5.77586 0.980361 -4.22982
lowerneck -6.97258 -2.2121 0.41701
upperneck 2.44708 -2.87597 -2.23956
head 1.91854 -1.48408 -0.885177
rclavicle 5.96354e-016 -1.59028e-014
rhumerus -36.5057 -20.4739 -77.1353
rradius 26.1598
rwrist 3.48292
rhand -14.9305 9.33702
rfingers 7.12502
rthumb 11.2317 -20.3423
lclavicle 5.96354e-016 -1.59028e-014
lhumerus -27.7529 -1.51486 77.9971
lradius 36.1701
lwrist 2.36877
lhand -13.2627 -2.34451
lfingers 7.12502
lthumb 12.84 27.2406
rfemur -7.84885 -9.28473 14.6617
rtibia 29.9079
rfoot -21.8332 22.2994
rtoes 4.33615
lfemur -12.4649 1.16553 -18.7831
ltibia 33.8854
lfoot -21.6185 -4.89198
ltoes -10.4566
310
root 5.41297 19.0085 -0.181882 353.063 -266.027 -370.086
lowerback -0.579474 0.90358 1.0283
upperback 5.12149 1.49016 -3.59148
thorax 5.76452 0.948526 -4.23223
lowerneck -6.7784 -2.22909 0.214436
upperneck 2.95538 -2.88911 -1.98383
head 2.0558 -1.48912 -0.773774
rclavicle 2.08724e-014 -1.82882e-014
rhumerus -36.8683 -22.4717 -76.473
rradius 25.3962
rwrist 3.77812
rhand -15.7283 8.92557
rfingers 7.12502
rthumb 10.4622 -20.7941
lclavicle 2.08724e-014 -1.82882e-014
lhumerus -27.427 1.32535 77.8138
lradius 35.7729
lwrist 2.48172
lhand -15.6836 -1.41417
lfingers 7.12502
lthumb 10.5053 28.3033
rfemur -7.6212 -9.06531 14.7001
rtibia 29.6132
rfoot -21.9947 21.9231
rtoes 4.89934
lfemur -12.3116 0.928572 -18.8121
ltibia 33.6209
lfoot -21.6562 -5.04842
ltoes -10.5173
311
root 5.43718 19.0172 -0.189653 353.299 -265.83 -369.917
lowerback -0.832879 0.880787 0.861025
upperback 5.06677 1.47191 -3.69179
thorax 5.84922 0.93447 -4.24098
lowerneck -6.74508 -2.232 0.11241
upperneck 3.56429 -2.88836 -1.78659
head 2.25488 -1.48807 -0.701483
rclavicle -4.96962e-015 -1.51076e-014
rhumerus -37.1415 -23.9538 -76.0994
rradius 24.7678
rwrist 3.60172
rhand -16.571 8.36658
rfingers 7.12502
rthumb 9.64926 -21.3924
lclavicle -4.96962e-015 -1.51076e-014
lhumerus -27.0685 4.04738 77.6642
lradius 35.4549
lwrist 2.39781
lhand -18.1699 -0.540534
lfingers 7.12502
lthumb 8.10632 29.284
rfemur -7.40521 -8.89155 14.7116
rtibia 29.3104
rfoot -22.0698 21.6487
rtoes 5.64686
lfemur -12.1468 0.697826 -18.8514
ltibia 33.3492
lfoot -21.7232 -5.28145
ltoes -10.2695
312
root 5.46349 19.0234 -0.197378 353.069 -265.628 -370.219
lowerback -1.11268 0.849941 0.635167
upperback 5.01905 1.44741 -3.79023
thorax 5.95447 0.91491 -4.21496
lowerneck -6.71745 -2.24894 0.0430056
upperneck 4.19095 -2.90629 -1.6453
head 2.46121 -1.49656 -0.653256
rclavicle -3.18055e-015 1.51076e-014
rhumerus -37.3493 -24.8462 -75.9788
rradius 24.2444
rwrist 3.14218
rhand -17.3035 7.69188
rfingers 7.12502
rthumb 8.94247 -22.0986
lclavicle -3.18055e-015 1.51076e-014
lhumerus -26.7524 6.61504 77.5931
lradius 35.2333
lwrist 2.39182
lhand -20.7582 0.25321
lfingers 7.12502
lthumb 5.60778 30.159
rfemur -7.18655 -8.78481 14.6788
rtibia 29.0215
rfoot -22.1539 21.3898
rtoes 6.26323
lfemur -11.9778 0.493491 -18.9211
ltibia 33.0879
lfoot -21.7596 -5.51848
ltoes -9.93663
